<mxfile host="app.diagrams.net" agent="Mozilla/5.0 (Windows NT 10.0; Win64; x64) AppleWebKit/537.36 (KHTML, like Gecko) Chrome/136.0.0.0 Safari/537.36" version="27.0.9">
  <diagram name="PÃ¡gina-1" id="f5X_xHM7n637uhTzFTax">
    <mxGraphModel dx="1281" dy="1827" grid="1" gridSize="10" guides="1" tooltips="1" connect="1" arrows="1" fold="1" page="1" pageScale="1" pageWidth="827" pageHeight="1169" math="0" shadow="0">
      <root>
        <mxCell id="0" />
        <mxCell id="1" parent="0" />
        <mxCell id="tvHd1ne5ozsf6BpLLZk2-1" value="Eventos" style="swimlane;whiteSpace=wrap;html=1;" vertex="1" parent="1">
          <mxGeometry x="570" y="320" width="200" height="200" as="geometry" />
        </mxCell>
        <mxCell id="tvHd1ne5ozsf6BpLLZk2-8" value="+Nombre : string&lt;br&gt;+Descripcion : string&lt;div&gt;+Fecha : string&lt;/div&gt;&lt;div&gt;+Tipo : string&lt;br&gt;Estado : string&lt;/div&gt;" style="text;html=1;align=center;verticalAlign=middle;resizable=0;points=[];autosize=1;strokeColor=none;fillColor=none;" vertex="1" parent="tvHd1ne5ozsf6BpLLZk2-1">
          <mxGeometry x="30" y="20" width="130" height="90" as="geometry" />
        </mxCell>
        <mxCell id="tvHd1ne5ozsf6BpLLZk2-2" value="UcbEventos" style="swimlane;whiteSpace=wrap;html=1;" vertex="1" parent="1">
          <mxGeometry x="120" y="320" width="200" height="200" as="geometry" />
        </mxCell>
        <mxCell id="tvHd1ne5ozsf6BpLLZk2-6" value="+eventos : Evento[]" style="text;html=1;align=center;verticalAlign=middle;resizable=0;points=[];autosize=1;strokeColor=none;fillColor=none;" vertex="1" parent="tvHd1ne5ozsf6BpLLZk2-2">
          <mxGeometry x="35" y="30" width="130" height="30" as="geometry" />
        </mxCell>
        <mxCell id="tvHd1ne5ozsf6BpLLZk2-7" value="+Crear : void&lt;br&gt;+Eliminar : void&lt;br&gt;+Editar : void" style="text;html=1;align=center;verticalAlign=middle;resizable=0;points=[];autosize=1;strokeColor=none;fillColor=none;" vertex="1" parent="tvHd1ne5ozsf6BpLLZk2-2">
          <mxGeometry x="45" y="120" width="110" height="60" as="geometry" />
        </mxCell>
        <mxCell id="tvHd1ne5ozsf6BpLLZk2-3" value="Programa" style="swimlane;whiteSpace=wrap;html=1;" vertex="1" parent="1">
          <mxGeometry x="330" y="-10" width="200" height="260" as="geometry" />
        </mxCell>
        <mxCell id="tvHd1ne5ozsf6BpLLZk2-9" value="Nombre : string&lt;br&gt;Descripcion : string&lt;br&gt;Fecha : string&lt;br&gt;Tipo : string&lt;br&gt;Estado : string&lt;br&gt;indice : number&lt;br&gt;Programa : UcbEventos" style="text;html=1;align=center;verticalAlign=middle;resizable=0;points=[];autosize=1;strokeColor=none;fillColor=none;" vertex="1" parent="tvHd1ne5ozsf6BpLLZk2-3">
          <mxGeometry x="25" y="30" width="150" height="110" as="geometry" />
        </mxCell>
        <mxCell id="tvHd1ne5ozsf6BpLLZk2-11" value="+Crear : void&lt;br&gt;+Eliminar : void" style="text;html=1;align=center;verticalAlign=middle;resizable=0;points=[];autosize=1;strokeColor=none;fillColor=none;" vertex="1" parent="tvHd1ne5ozsf6BpLLZk2-3">
          <mxGeometry x="45" y="140" width="110" height="40" as="geometry" />
        </mxCell>
        <mxCell id="tvHd1ne5ozsf6BpLLZk2-4" value="" style="endArrow=none;html=1;rounded=0;exitX=0;exitY=0.5;exitDx=0;exitDy=0;entryX=1;entryY=0.5;entryDx=0;entryDy=0;" edge="1" parent="1" source="tvHd1ne5ozsf6BpLLZk2-2" target="tvHd1ne5ozsf6BpLLZk2-2">
          <mxGeometry width="50" height="50" relative="1" as="geometry">
            <mxPoint x="390" y="370" as="sourcePoint" />
            <mxPoint x="440" y="320" as="targetPoint" />
          </mxGeometry>
        </mxCell>
        <mxCell id="tvHd1ne5ozsf6BpLLZk2-5" value="" style="endArrow=none;html=1;rounded=0;exitX=0;exitY=0.5;exitDx=0;exitDy=0;entryX=1;entryY=0.5;entryDx=0;entryDy=0;" edge="1" parent="1" source="tvHd1ne5ozsf6BpLLZk2-1" target="tvHd1ne5ozsf6BpLLZk2-1">
          <mxGeometry width="50" height="50" relative="1" as="geometry">
            <mxPoint x="390" y="370" as="sourcePoint" />
            <mxPoint x="440" y="320" as="targetPoint" />
          </mxGeometry>
        </mxCell>
        <mxCell id="tvHd1ne5ozsf6BpLLZk2-10" value="" style="endArrow=none;html=1;rounded=0;" edge="1" parent="1">
          <mxGeometry width="50" height="50" relative="1" as="geometry">
            <mxPoint x="330" y="130" as="sourcePoint" />
            <mxPoint x="530" y="130" as="targetPoint" />
          </mxGeometry>
        </mxCell>
        <mxCell id="tvHd1ne5ozsf6BpLLZk2-12" value="" style="endArrow=none;html=1;rounded=0;entryX=0.5;entryY=1;entryDx=0;entryDy=0;exitX=0.5;exitY=0;exitDx=0;exitDy=0;" edge="1" parent="1" source="tvHd1ne5ozsf6BpLLZk2-2" target="tvHd1ne5ozsf6BpLLZk2-3">
          <mxGeometry width="50" height="50" relative="1" as="geometry">
            <mxPoint x="390" y="370" as="sourcePoint" />
            <mxPoint x="440" y="320" as="targetPoint" />
          </mxGeometry>
        </mxCell>
        <mxCell id="tvHd1ne5ozsf6BpLLZk2-13" value="" style="endArrow=none;html=1;rounded=0;entryX=0.5;entryY=1;entryDx=0;entryDy=0;exitX=0.5;exitY=0;exitDx=0;exitDy=0;" edge="1" parent="1" source="tvHd1ne5ozsf6BpLLZk2-1" target="tvHd1ne5ozsf6BpLLZk2-3">
          <mxGeometry width="50" height="50" relative="1" as="geometry">
            <mxPoint x="390" y="370" as="sourcePoint" />
            <mxPoint x="440" y="320" as="targetPoint" />
          </mxGeometry>
        </mxCell>
      </root>
    </mxGraphModel>
  </diagram>
</mxfile>
